<?xml version="1.0" encoding="utf-8"?>
<!-- Generator: Adobe Illustrator 23.0.3, SVG Export Plug-In . SVG Version: 6.00 Build 0)  -->
<svg version="1.1" id="Layer_1" xmlns="http://www.w3.org/2000/svg" xmlns:xlink="http://www.w3.org/1999/xlink" x="0px" y="0px"
	 viewBox="0 0 88.8 36.4" style="enable-background:new 0 0 88.8 36.4;" xml:space="preserve">
<style type="text/css">
	.st0{fill-rule:evenodd;clip-rule:evenodd;fill:#ABA8A8;}
	.st1{fill:#ABA8A8;}
	.st2{fill-rule:evenodd;clip-rule:evenodd;fill:#E87817;}
	.st3{fill:#38AB36;}
	.st4{fill-rule:evenodd;clip-rule:evenodd;fill:#38AB36;}
</style>
<g>
	<path class="st0" d="M31.6,14.8l-0.1-2.4l0-0.6c-2.1,1.7-4.5,4.3-5.9,6.5l0,0.1l0,0h0c1.4,2.2,3.8,4.7,5.8,6.4l0-0.6l0.1-2.4
		c1.7,0,11.1,2.3,6.8,6.1c-2.4,2.1-6.3,4.5-12,5.4c6.2-1.7,10.2-3.9,10-5.8c-0.3-2-5.3-3.1-12.4-3.1c-0.8-0.1-1.7-0.1-2.6-0.1
		L3,24.8c0-0.1-0.1-0.1-0.1-0.2l-0.3,0c-1.1-1.8-1.8-3.8-1.9-5.9c0-0.2,0-0.3,0-0.5c0-2.3,0.7-4.4,1.9-6.4
		c6.4,0.4,14.8,0.6,21.5,0.2c7.1,0.1,12.1-1.1,12.4-3.1c0.2-1.9-3.8-4.1-10-5.8c5.7,0.9,9.6,3.2,12,5.4
		C42.7,12.5,33.3,14.8,31.6,14.8"/>
</g>
<g>
	<path class="st1" d="M21.4,36.5v-2.6C14.3,33.8,8,31.5,4,27.5c-2.6-2.6-4.1-5.9-4-9.1c0-3.7,1.4-6.9,4.1-9.5
		C8.6,4.6,16,2.7,21.3,2.7c0,0,0.1,0,0.1,0l0.1-2.6l0.9,0.8c2.1,1.8,4.5,3.9,6,6.3l0.2,0.3l-0.2,0.3c-1.8,2.8-4,5.4-6,7l-0.9,0.7
		l-0.2-3c-4.6,0-9.7,0.5-13.6,1.6c-4,1.1-6.5,2.6-6.5,3.9c0,0.4,0.2,0.9,0.7,1.4c2.6,2.6,11.3,4.6,19.4,4.4l0.2-3l0.9,0.7
		c2,1.6,4.2,4.2,6,7l0.2,0.3l-0.2,0.3c-1.5,2.4-3.9,4.5-6,6.3L21.4,36.5z M1.4,20.7c0.5,2.1,1.7,4.2,3.4,6C8.7,30.5,15,32.8,22,32.8
		h0.6V34c1.7-1.5,3.4-3.1,4.6-4.9c-1.1-1.8-2.9-4-4.6-5.7l-0.1,1.7l-0.5,0C13.5,25.4,4.7,23.4,1.4,20.7z M21.3,3.8
		c-5.1,0-12.1,1.8-16.4,5.9c-1.8,1.8-3,3.8-3.5,6.1c1.5-1.2,3.9-2.1,6-2.7c4.2-1.1,9.6-1.7,14.5-1.6l0.5,0l0.1,1.7
		c1.8-1.7,3.5-3.9,4.6-5.7c-1.2-1.8-2.9-3.5-4.6-4.9l0,1.3l-0.6,0C21.7,3.8,21.5,3.8,21.3,3.8z"/>
</g>
<g>
	<path class="st2" d="M22,33.4v1.9c2.1-1.8,4.4-3.9,5.9-6.2c-1.5-2.4-3.7-5.2-5.9-6.9l-0.1,2.4c-10.3,0.3-21.3-2.8-21.2-6.4
		c0.1-3.6,11.3-6.3,21.2-6.1l0.1,2.4c2.1-1.7,4.3-4.5,5.9-6.9c-1.4-2.3-3.7-4.4-5.9-6.2l0,1.9C14.3,3,0.7,7.1,0.6,18.4
		C0.5,26,9,33.4,22,33.4"/>
</g>
<polyline class="st3" points="49.3,32.5 47.7,32.5 46.2,28.5 45.7,29.8 45.7,32.5 44.2,32.5 44.2,23 45.7,23 45.7,26.5 47.3,23 
	48.9,23 47.1,27 "/>
<path class="st3" d="M52.3,27v-2.4h-1.1v3 M53.9,27.8l-2.7,1.4v3.3h-1.6V23h3c0.8,0,1.3,0.4,1.3,1.3V27.8z"/>
<path class="st3" d="M58.9,31.2c0,0.4-0.1,0.7-0.3,1c-0.2,0.2-0.5,0.3-0.9,0.3H56c-0.4,0-0.7-0.1-0.9-0.3c-0.2-0.2-0.3-0.5-0.3-1
	l0-0.5l1.5-0.8V31h1.1v-2.5l-2.6,1.3V23h1.5v4.5l1.1-0.5V23h1.5"/>
<path class="st3" d="M66.8,31.1c0,0.5-0.1,0.8-0.3,1c-0.2,0.2-0.6,0.3-1,0.3h-4.3c-0.4,0-0.7-0.1-0.9-0.3c-0.2-0.2-0.3-0.5-0.3-1V23
	h1.6v7.9h1.1V23h1.5v7.9h1.1V23h1.6"/>
<polyline class="st3" points="71.7,32.5 68,32.5 68,23 71.7,23 71.7,24.5 69.5,24.5 69.5,27 71.7,25.9 71.7,27.5 69.5,28.7 
	69.5,30.9 71.7,30.9 "/>
<path class="st3" d="M75.4,31v-3l-1.2,0.6V31 M75.4,26.4v-1.9h-1.2V27L75.4,26.4z M76.9,31.1c0,0.9-0.5,1.3-1.4,1.3h-2.9V23h3
	c0.8,0,1.3,0.4,1.3,1.3v2c0,0.6-0.2,1-0.7,1.1h0.7V31.1z"/>
<path class="st3" d="M80.7,26.8v-2.3h-1.1v2.8 M82.3,32.5h-1.6v-4L79.6,29v3.4H78v-8.2c0-0.4,0.1-0.7,0.3-0.9
	c0.2-0.2,0.5-0.3,0.9-0.3H81c0.4,0,0.7,0.1,0.9,0.3c0.2,0.2,0.3,0.5,0.3,0.9V32.5z"/>
<path class="st4" d="M83.4,32.5v-9.4H85V31h1.1v-8h1.6v7.9h0.7v1.5C86.3,32.5,85.6,32.5,83.4,32.5"/>
<path class="st3" d="M64.4,16.2c0,0.4-0.1,0.7-0.3,0.9c-0.2,0.2-0.5,0.3-0.9,0.3h-1.4c-0.4,0-0.6-0.1-0.8-0.3
	c-0.2-0.2-0.3-0.5-0.3-0.9l0-0.4l1.4-0.7v1h1v-2.3L60.7,15V8.8h1.4v4.1l1-0.5V8.8h1.4"/>
<path class="st3" d="M60.1,17.2h-1.4V10h-1v7.2h-1.4V10h-1v7.2h-1.4V9.8c0-0.4,0.1-0.6,0.3-0.9c0.2-0.2,0.5-0.3,0.8-0.3h1.2
	c0.2,0,0.4,0.1,0.6,0.2c0.1,0.1,0.2,0.3,0.2,0.6c0-0.6,0.3-0.8,0.8-0.8h1.2c0.4,0,0.6,0.1,0.8,0.3c0.2,0.2,0.3,0.5,0.3,0.9
	 M51.4,15.9V10h-1v5.8H51.4z M52.8,16c0,0.8-0.4,1.2-1.2,1.2h-1.6c-0.4,0-0.6-0.1-0.8-0.3C49.1,16.7,49,16.4,49,16V9.8
	C49,9.5,49,9.2,49.2,9c0.2-0.2,0.5-0.3,0.8-0.3h1.6c0.4,0,0.6,0.1,0.8,0.3c0.2,0.2,0.3,0.5,0.3,0.9V16z M48.7,17.2l-1.4,0l-1.3-3.6
	l-0.5,1.2v2.4H44V8.7h1.4v3.1l1.4-3.1h1.5l-1.6,3.6L48.7,17.2z"/>
<polyline class="st3" points="69,17.2 67.6,17.2 67.6,13.2 66.5,13.8 66.5,17.2 65.1,17.2 65.1,8.7 66.5,8.7 66.5,12.2 67.6,11.7 
	67.6,8.7 69,8.7 "/>
<path class="st3" d="M72.5,12.1V10h-1v2.6 M73.9,17.2h-1.4v-3.6l-1,0.5v3.1H70V9.8c0-0.4,0.1-0.6,0.3-0.9c0.2-0.2,0.5-0.3,0.8-0.3
	h1.6c0.4,0,0.6,0.1,0.8,0.3c0.2,0.2,0.3,0.5,0.3,0.9V17.2z"/>
<polyline class="st3" points="78.9,17.2 77.4,8.7 75.8,8.7 74.3,17.2 75.7,17.2 76.6,11.8 77.5,17.2 "/>
<polyline class="st3" points="83.2,17.2 81.8,17.2 81.8,13.2 80.8,13.8 80.8,17.2 79.4,17.2 79.4,8.7 80.8,8.7 80.8,12.2 81.8,11.7 
	81.8,8.7 83.2,8.7 "/>
<path class="st3" d="M86.7,15.9V10h-1v5.8 M88.1,16c0,0.8-0.4,1.2-1.2,1.2h-1.6c-0.4,0-0.6-0.1-0.8-0.3c-0.2-0.2-0.3-0.5-0.3-0.9
	V9.8c0-0.4,0.1-0.6,0.3-0.9c0.2-0.2,0.5-0.3,0.8-0.3h1.6c0.4,0,0.6,0.1,0.8,0.3c0.2,0.2,0.3,0.5,0.3,0.9V16z"/>
<path class="st3" d="M85.2,6.3h2.1V4.6h-2.1 M84.6,4.8c0-0.2,0-0.4,0.1-0.5c0.1-0.1,0.3-0.1,0.5-0.1h2c0.3,0,0.4,0,0.5,0.1
	c0.1,0.1,0.1,0.3,0.1,0.5v1.4c0,0.2,0,0.4-0.1,0.5c-0.1,0.1-0.3,0.1-0.5,0.1h-2c-0.3,0-0.4,0-0.5-0.1c-0.1-0.1-0.1-0.3-0.1-0.5V4.8z
	 M74,6.8V4.2h0.6v1h2v-1h0.6v2.7h-0.6V5.7h-2v1.2H74z M63.8,6.8V4.2h2.3c0.2,0,0.4,0,0.5,0.1c0.1,0.1,0.1,0.2,0.1,0.4V5
	c0,0.1,0,0.2-0.1,0.3c-0.1,0.1-0.2,0.1-0.3,0.1c0.2,0,0.3,0.1,0.4,0.2c0.1,0.1,0.1,0.2,0.1,0.4v0.3c0,0.2-0.1,0.3-0.2,0.4
	c-0.1,0.1-0.3,0.1-0.6,0.1H63.8z M65.8,5.7h-1.4v0.7h1.4c0.1,0,0.2,0,0.2-0.1c0,0,0.1-0.1,0.1-0.2V5.9c0-0.1,0-0.1-0.1-0.2
	C66,5.7,66,5.7,65.8,5.7z M65.8,4.6h-1.4v0.6h1.4c0.1,0,0.2,0,0.2,0c0,0,0.1-0.1,0.1-0.2V4.8c0-0.1,0-0.1-0.1-0.1
	C66,4.6,66,4.6,65.8,4.6z M53.2,6.8l1.5-2.7h0.6l1.5,2.7l-0.7,0l-0.3-0.6h-1.7l-0.3,0.6H53.2z M54.4,5.8h1.2L55,4.7L54.4,5.8z
	 M44.7,6.8c-0.3,0-0.4,0-0.5-0.1C44.1,6.6,44,6.4,44,6.2V5.6l0.6-0.1v0.8h1.2V4.2h0.6v2.1c0,0.2,0,0.4-0.1,0.5
	c-0.1,0.1-0.3,0.1-0.5,0.1H44.7z"/>
<polyline class="st3" points="44,18.9 44,21.6 44.6,21.6 44.6,19.4 46.2,19.4 46.2,21.6 46.8,21.6 46.8,18.9 46.6,18.9 44.2,18.9 
	"/>
<path class="st3" d="M49.1,21.6v-2.7h2.3c0.2,0,0.4,0,0.5,0.1c0.1,0.1,0.1,0.2,0.1,0.4V20c0,0.2,0,0.3-0.1,0.4
	c-0.1,0.1-0.2,0.1-0.5,0.1h-1.7v1 M51.2,19.4h-1.4v0.7h1.4c0.1,0,0.2,0,0.2,0c0,0,0.1-0.1,0.1-0.2v-0.3c0-0.1,0-0.1-0.1-0.2
	C51.3,19.4,51.3,19.4,51.2,19.4z"/>
<polyline class="st3" points="54.3,21.6 54.3,18.9 57,18.9 57,19.4 54.9,19.4 54.9,20 56.1,20 56.1,20.4 54.9,20.4 54.9,21.1 
	57,21.1 57,21.6 "/>
<path class="st3" d="M59.8,21.2l0.9-1.6l0.8,1.6 M60.4,18.9l-1.3,2.3h-0.3v0.4h3.7v-0.4h-0.3l-1.3-2.3H60.4z"/>
<polyline class="st3" points="64.2,21.6 65.1,20.4 63.7,18.9 64.6,18.9 65.5,20 66.4,18.9 67.1,18.9 65.8,20.4 64.8,21.6 "/>
<path class="st3" d="M69.3,21.6c-0.2,0-0.4,0-0.5-0.1c-0.1-0.1-0.1-0.2-0.1-0.4v-0.2l0.5-0.1v0.4h1.4c0.1,0,0.2,0,0.2,0
	c0,0,0.1-0.1,0.1-0.2v-0.2c0-0.1,0-0.2-0.1-0.2c0,0-0.1-0.1-0.2-0.1h-0.9V20h0.8c0.1,0,0.2,0,0.2,0c0,0,0.1-0.1,0.1-0.2v-0.1
	c0-0.1,0-0.2-0.1-0.2c0,0-0.1,0-0.2,0h-1.3v0.3l-0.5-0.1v-0.2c0-0.2,0-0.3,0.1-0.4c0.1-0.1,0.2-0.1,0.5-0.1h1.4c0.2,0,0.4,0,0.5,0.1
	c0.1,0.1,0.1,0.2,0.1,0.4v0.2c0,0.2,0,0.3-0.1,0.3c-0.1,0.1-0.2,0.1-0.4,0.2c0.2,0,0.4,0.1,0.5,0.2c0.1,0.1,0.1,0.2,0.1,0.4V21
	c0,0.2,0,0.4-0.1,0.4c-0.1,0.1-0.3,0.1-0.5,0.1"/>
<polyline class="st3" points="74.1,21.6 74.1,18.9 76.8,18.9 76.8,19.4 74.7,19.4 74.7,20 75.9,20 75.9,20.4 74.7,20.4 74.7,21.1 
	76.8,21.1 76.8,21.6 "/>
<polyline class="st3" points="85,21.6 85,18.9 87.8,18.9 87.8,19.4 85.7,19.4 85.7,20 86.9,20 86.9,20.4 85.7,20.4 85.7,21.1 
	87.8,21.1 87.8,21.6 "/>
<path class="st4" d="M80.2,21.1L80.2,21.1l0-0.7h1.4c0.1,0,0.2,0,0.2,0c0,0,0.1,0.1,0.1,0.2h0V21v0v0.6v0c0,0,0,0,0.1,0h0.5v-0.5
	c0,0,0,0,0,0v-0.6c0-0.2,0-0.3-0.1-0.4C82.2,20,82,20,81.8,20h-1.7v-0.6h2.2v-0.4h-2.2h-0.6v0.4v2.2h0.6"/>
</svg>
